<svg width="86" height="87" viewBox="0 0 86 87" fill="none" xmlns="http://www.w3.org/2000/svg">
<path d="M40.4984 80.9681L41.4788 81.0563L39.2374 85.9661L38.1035 85.864L36.7724 80.6327L37.7528 80.7209L38.7443 84.8734L38.7839 84.877L40.4984 80.9681ZM40.2873 82.9532L37.6135 82.7126L37.6799 81.9748L40.3537 82.2154L40.2873 82.9532Z" fill="#9CA3AF"/>
<path d="M29.7144 82.3197L30.6105 82.5671C30.5955 82.7211 30.6067 82.8643 30.6441 82.9967C30.6811 83.1306 30.7397 83.2517 30.8198 83.3598C30.9 83.4678 31.0001 83.5599 31.1201 83.636C31.238 83.7133 31.3721 83.7726 31.5222 83.814C31.789 83.8877 32.044 83.8858 32.2871 83.8085C32.5297 83.7328 32.7449 83.5824 32.9325 83.3574C33.1196 83.134 33.2641 82.8378 33.366 82.4688C33.4696 82.0934 33.4986 81.761 33.4529 81.4716C33.4052 81.1834 33.2972 80.9456 33.1289 80.7581C32.9586 80.5719 32.7408 80.4421 32.4756 80.369C32.3286 80.3284 32.186 80.3096 32.0476 80.3127C31.9072 80.3169 31.7753 80.3433 31.6519 80.3918C31.5269 80.4398 31.4138 80.51 31.3126 80.6024C31.2099 80.6944 31.1251 80.8085 31.0583 80.9448L30.1634 80.6927C30.2613 80.4687 30.3944 80.2699 30.5627 80.0963C30.7293 79.9223 30.9237 79.7816 31.1458 79.6745C31.3675 79.5689 31.6103 79.5052 31.8742 79.4835C32.1376 79.4634 32.4155 79.4936 32.7078 79.5743C33.1391 79.6934 33.4966 79.8995 33.7801 80.1926C34.0637 80.4858 34.2509 80.8477 34.3417 81.2785C34.4326 81.7093 34.4052 82.1883 34.2597 82.7155C34.1138 83.2442 33.8908 83.6692 33.5907 83.9904C33.2902 84.3131 32.943 84.5276 32.5492 84.6339C32.1555 84.7401 31.7445 84.7341 31.3164 84.616C31.0432 84.5406 30.7998 84.4321 30.5861 84.2906C30.3725 84.1492 30.1943 83.9788 30.0516 83.7795C29.9084 83.5818 29.8073 83.3597 29.7482 83.113C29.687 82.8674 29.6757 82.603 29.7144 82.3197Z" fill="#9CA3AF"/>
<path d="M22.9944 79.3652L23.832 79.7686C23.7897 79.9174 23.7752 80.0603 23.7883 80.1973C23.8008 80.3357 23.8368 80.4652 23.8964 80.5859C23.956 80.7066 24.038 80.815 24.1425 80.9113C24.2447 81.0084 24.366 81.0907 24.5064 81.1583C24.7557 81.2784 25.0069 81.3221 25.2599 81.2894C25.5122 81.2583 25.7507 81.1487 25.9755 80.9608C26.1995 80.7744 26.3946 80.5088 26.5607 80.1639C26.7297 79.813 26.8175 79.4911 26.8243 79.1982C26.8289 78.9061 26.7651 78.6529 26.6329 78.4384C26.4985 78.2247 26.3074 78.0582 26.0596 77.9388C25.9222 77.8727 25.7852 77.8287 25.6485 77.807C25.5096 77.7861 25.3751 77.7885 25.245 77.8141C25.1134 77.8391 24.9896 77.888 24.8736 77.9609C24.7561 78.033 24.6523 78.1302 24.5622 78.2523L23.7267 77.8445C23.8631 77.6416 24.0295 77.4697 24.2261 77.329C24.4211 77.1875 24.6375 77.0838 24.8752 77.018C25.1121 76.9537 25.3624 76.9345 25.6259 76.9602C25.8887 76.9874 26.1567 77.0668 26.4299 77.1984C26.8331 77.3925 27.148 77.6591 27.3746 77.9982C27.6013 78.3373 27.7208 78.7269 27.7333 79.167C27.7458 79.607 27.6334 80.0734 27.3961 80.5662C27.1581 81.0604 26.8628 81.4387 26.5101 81.7011C26.1568 81.9651 25.7769 82.1141 25.3705 82.1483C24.9641 82.1825 24.5608 82.1033 24.1607 81.9106C23.9054 81.7876 23.6852 81.6375 23.5002 81.4601C23.3153 81.2827 23.1704 81.0833 23.0655 80.8617C22.96 80.6417 22.9001 80.405 22.886 80.1517C22.8696 79.8992 22.9058 79.637 22.9944 79.3652Z" fill="#9CA3AF"/>
<path d="M22.0338 74.8114L19.0414 78.93L16.3627 76.9838L16.8171 76.3584L18.7497 77.7625L19.5621 76.6443L17.7682 75.341L18.2226 74.7156L20.0165 76.0189L20.8332 74.8947L18.8845 73.4789L19.3389 72.8535L22.0338 74.8114Z" fill="#9CA3AF"/>
<path d="M16.6789 70.5023L12.9992 74.0205L12.3619 73.3539L15.4828 70.37L13.9333 68.7494L14.492 68.2151L16.6789 70.5023Z" fill="#9CA3AF"/>
<path d="M12.3576 65.5299L8.10887 68.3344L6.28481 65.5711L6.93 65.1452L8.24601 67.1389L9.39948 66.3775L8.17796 64.527L8.82315 64.1011L10.0447 65.9516L11.2044 65.1861L9.8774 63.1758L10.5226 62.7499L12.3576 65.5299Z" fill="#9CA3AF"/>
<path d="M8.86366 59.6271L4.18243 61.628L3.43211 59.8725C3.2784 59.5129 3.21191 59.1845 3.23266 58.8873C3.25275 58.5885 3.34886 58.3285 3.52098 58.1071C3.69092 57.8849 3.92523 57.71 4.2239 57.5823C4.5241 57.454 4.81203 57.4066 5.0877 57.4402C5.36119 57.4729 5.61088 57.5869 5.83678 57.7823C6.06115 57.9784 6.2502 58.2562 6.40391 58.6159L6.93832 59.8662L6.2343 60.1671L5.74874 59.031C5.65886 58.8208 5.55631 58.6609 5.44109 58.5516C5.32434 58.4429 5.19591 58.3806 5.05579 58.3648C4.91349 58.3482 4.7593 58.3753 4.5932 58.4463C4.4271 58.5173 4.29939 58.6106 4.21006 58.7263C4.11921 58.8427 4.07196 58.9809 4.06832 59.141C4.06316 59.3018 4.10585 59.4882 4.19638 59.7L4.52856 60.4771L8.5012 58.7791L8.86366 59.6271ZM5.70883 58.1155L7.33469 56.0499L7.73916 56.9962L6.10451 59.0412L5.70883 58.1155Z" fill="#9CA3AF"/>
<path d="M6.4424 52.9268L6.66144 53.8865L1.29936 53.272L1.04602 52.162L5.60992 49.2795L5.82897 50.2391L2.18612 52.4653L2.19497 52.5041L6.4424 52.9268ZM4.48916 53.3394L3.89177 50.7221L4.61396 50.5573L5.21136 53.1746L4.48916 53.3394Z" fill="#9CA3AF"/>
<path d="M1.06068 47.1376L0.288376 47.1723L0.106144 43.1146L0.878448 43.0799L0.949044 44.6518L5.26252 44.4581L5.30356 45.372L0.990085 45.5657L1.06068 47.1376Z" fill="#9CA3AF"/>
<path d="M5.37926 40.0844L0.334425 39.401L0.778882 36.1199L1.54497 36.2237L1.2243 38.5909L2.5939 38.7764L2.89154 36.5792L3.65762 36.6829L3.35998 38.8802L4.73697 39.0667L5.0603 36.6798L5.82639 36.7836L5.37926 40.0844Z" fill="#9CA3AF"/>
<path d="M6.9982 32.2128L6.4651 33.8535L1.62336 32.2803L2.16721 30.6065C2.32341 30.1258 2.55451 29.7444 2.86052 29.4622C3.16546 29.1779 3.52861 29.0014 3.94996 28.9327C4.37131 28.864 4.83338 28.9113 5.33615 29.0747C5.8405 29.2386 6.24345 29.4732 6.54501 29.7785C6.84708 30.0823 7.03795 30.4414 7.11761 30.8558C7.19778 31.2687 7.15798 31.721 6.9982 32.2128ZM5.9912 32.7298L6.22549 32.0088C6.33508 31.6715 6.36502 31.3702 6.31532 31.1048C6.26404 30.839 6.1339 30.6094 5.9249 30.416C5.71433 30.2222 5.42385 30.065 5.05347 29.9447C4.68309 29.8244 4.35731 29.7812 4.07615 29.8153C3.79341 29.8489 3.55525 29.9571 3.36169 30.1399C3.16706 30.3206 3.01649 30.5749 2.90997 30.9027L2.66723 31.6498L5.9912 32.7298Z" fill="#9CA3AF"/>
<path d="M12.4946 21.3102L8.51436 18.1361L9.72946 16.6124C9.95884 16.3248 10.1948 16.1219 10.4374 16.0037C10.6797 15.8833 10.9163 15.8378 11.1472 15.8672C11.3792 15.8953 11.5936 15.9879 11.7906 16.1449C11.9525 16.2741 12.0664 16.4157 12.1321 16.5699C12.1965 16.723 12.2225 16.8804 12.2101 17.0422C12.1976 17.204 12.1553 17.3621 12.0831 17.5164L12.1219 17.5474C12.2423 17.4124 12.3937 17.3116 12.5761 17.2451C12.7582 17.1762 12.9535 17.1571 13.1622 17.1879C13.3708 17.2186 13.5762 17.3146 13.7783 17.4758C13.9843 17.64 14.1298 17.8377 14.2148 18.0687C14.2985 18.2986 14.3076 18.5517 14.242 18.828C14.1764 19.1042 14.0223 19.3946 13.7794 19.6991L12.4946 21.3102ZM12.4671 20.1087L13.0855 19.3333C13.2942 19.0716 13.3947 18.8433 13.3869 18.6484C13.3788 18.4512 13.2957 18.2896 13.1377 18.1635C13.0198 18.0695 12.8903 18.0139 12.7492 17.9968C12.6068 17.9786 12.4656 18.0016 12.3254 18.0658C12.1839 18.1289 12.0538 18.2349 11.9349 18.3839L11.301 19.1788L12.4671 20.1087ZM10.7821 18.765L11.3509 18.0517C11.4501 17.9274 11.5168 17.7972 11.551 17.6613C11.584 17.5243 11.581 17.3937 11.5423 17.2696C11.5033 17.1431 11.4255 17.0333 11.3088 16.9403C11.1547 16.8174 10.9843 16.7705 10.7977 16.7998C10.6122 16.8278 10.4347 16.948 10.2653 17.1605L9.68407 17.8893L10.7821 18.765Z" fill="#9CA3AF"/>
<path d="M13.21 12.7646L13.9944 12.0793L16.414 12.9559L16.4514 12.9232L15.9075 10.4078L16.6919 9.72252L17.3972 13.3446L18.6468 14.7748L17.9541 15.3799L16.7046 13.9497L13.21 12.7646Z" fill="#9CA3AF"/>
<path d="M29.2607 7.51635C29.0729 7.58681 28.8843 7.60538 28.6948 7.57207C28.5047 7.53721 28.334 7.45967 28.1827 7.33946C28.0329 7.21866 27.9228 7.06439 27.8523 6.87666C27.7813 6.68737 27.7627 6.49875 27.7966 6.31079C27.8315 6.1207 27.9093 5.95077 28.0301 5.801C28.1503 5.64968 28.3043 5.53879 28.492 5.46834C28.6813 5.39729 28.8702 5.3795 29.0588 5.41494C29.2483 5.44825 29.4179 5.5253 29.5677 5.6461C29.7184 5.76477 29.8293 5.91874 29.9004 6.10803C29.9708 6.29576 29.9886 6.48467 29.9538 6.67476C29.9204 6.86427 29.8437 7.03469 29.7235 7.18601C29.6042 7.33519 29.45 7.44531 29.2607 7.51635Z" fill="#9CA3AF"/>
<path d="M41.2018 6V0.909091L43.1507 0.909091C43.5186 0.909091 43.8244 0.967093 44.068 1.0831C44.3132 1.19744 44.4963 1.35405 44.6173 1.55291C44.74 1.75178 44.8013 1.97715 44.8013 2.22905C44.8013 2.4362 44.7615 2.61352 44.682 2.76101C44.6024 2.90684 44.4955 3.02533 44.3613 3.11648C44.2271 3.20762 44.0771 3.27308 43.9114 3.31286V3.36257C44.092 3.37251 44.2652 3.42803 44.4309 3.52912C44.5983 3.62855 44.735 3.76941 44.841 3.9517C44.9471 4.134 45.0001 4.3544 45.0001 4.61293C45.0001 4.87642 44.9363 5.1134 44.8087 5.32386C44.6811 5.53267 44.4889 5.69756 44.232 5.81854C43.9752 5.93951 43.652 6 43.2626 6L41.2018 6ZM42.1241 5.2294L43.1159 5.2294C43.4507 5.2294 43.6918 5.1656 43.8393 5.038C43.9884 4.90874 44.063 4.74302 44.063 4.54084C44.063 4.39003 44.0257 4.25414 43.9511 4.13317C43.8766 4.01054 43.7705 3.91442 43.6329 3.84482C43.4954 3.77356 43.3313 3.73793 43.1408 3.73793H42.1241V5.2294ZM42.1241 3.07422H43.0364C43.1954 3.07422 43.3388 3.04522 43.4664 2.98722C43.594 2.92756 43.6943 2.84387 43.7672 2.73615C43.8418 2.62678 43.879 2.49751 43.879 2.34837C43.879 2.15116 43.8094 1.98875 43.6702 1.86115C43.5327 1.73355 43.328 1.66974 43.0562 1.66974L42.1241 1.66974V3.07422Z" fill="#9CA3AF"/>
<path d="M51.5009 1.79808L52.4083 1.96275L51.8144 5.2353C51.7493 5.59402 51.6073 5.89415 51.3883 6.13568C51.1709 6.37751 50.8959 6.54739 50.5631 6.64533C50.2307 6.74164 49.8607 6.7528 49.453 6.67883C49.0438 6.60456 48.7004 6.46393 48.423 6.25696C48.1459 6.04835 47.9481 5.79265 47.8296 5.48987C47.711 5.18709 47.6843 4.85633 47.7494 4.49761L48.3433 1.22507L49.2507 1.38974L48.6706 4.58646C48.6327 4.79517 48.6446 4.98934 48.7064 5.16897C48.7697 5.34889 48.8769 5.50056 49.028 5.62398C49.1794 5.74577 49.37 5.82753 49.5999 5.86925C49.8299 5.91097 50.0371 5.90142 50.2216 5.84059C50.408 5.77842 50.5617 5.67409 50.6826 5.5276C50.8035 5.38112 50.8829 5.20352 50.9208 4.99481L51.5009 1.79808Z" fill="#9CA3AF"/>
<path d="M58.4333 3.88687L56.6445 8.65315L55.7811 8.3291L57.5699 3.56282L58.4333 3.88687Z" fill="#9CA3AF"/>
<path d="M60.7364 10.5504L63.3475 6.18012L64.1392 6.65313L61.9246 10.3598L63.8494 11.5098L63.4529 12.1734L60.7364 10.5504Z" fill="#9CA3AF"/>
<path d="M67.2151 15.0591L65.916 13.9241L69.2655 10.0903L70.5908 11.2482C70.9715 11.5807 71.2314 11.9432 71.3706 12.3354C71.5121 12.7276 71.5317 13.1309 71.4293 13.5453C71.3268 13.9598 71.1017 14.366 70.7539 14.7641C70.405 15.1635 70.0309 15.4418 69.6316 15.5991C69.2336 15.7575 68.8283 15.7919 68.4159 15.7022C68.0048 15.6137 67.6045 15.3993 67.2151 15.0591ZM67.1355 13.9299L67.7064 14.4288C67.9735 14.6621 68.2388 14.8081 68.5023 14.8666C68.7669 14.924 69.0292 14.8945 69.2891 14.7783C69.5501 14.6609 69.8088 14.4556 70.065 14.1623C70.3212 13.869 70.4889 13.5864 70.5681 13.3145C70.6483 13.0413 70.6424 12.7798 70.5504 12.5299C70.4607 12.2799 70.2861 12.0415 70.0265 11.8148L69.435 11.2979L67.1355 13.9299Z" fill="#9CA3AF"/>
<path d="M75.7068 25.7201C75.5419 25.4136 75.4556 25.1204 75.4479 24.8403C75.4402 24.5603 75.4983 24.3098 75.6222 24.0888C75.7483 23.8685 75.9303 23.6944 76.1681 23.5664C76.3476 23.4698 76.5263 23.4207 76.7042 23.419C76.8829 23.4188 77.0663 23.4519 77.2544 23.5182C77.4433 23.5859 77.6424 23.6744 77.8518 23.7838L78.8201 24.2875C78.9588 24.3634 79.0866 24.4085 79.2034 24.4228C79.321 24.4385 79.4368 24.4158 79.5506 24.3545C79.6469 24.3027 79.7161 24.2127 79.7583 24.0847C79.8012 23.9581 79.7845 23.824 79.7084 23.6824C79.6573 23.5876 79.5895 23.5159 79.505 23.4672C79.4228 23.4193 79.3349 23.3941 79.2414 23.3917C79.1487 23.3908 79.0622 23.4119 78.9819 23.4551C78.8842 23.5078 78.7995 23.5882 78.7278 23.6963C78.657 23.806 78.5911 23.9336 78.5302 24.0793C78.4702 24.2264 78.4066 24.3829 78.3397 24.5488L77.0069 27.9788L76.5452 27.1207L77.6059 24.2972C77.6878 24.0857 77.7698 23.8797 77.852 23.6793C77.935 23.4803 78.0352 23.2993 78.1527 23.1364C78.2724 22.9741 78.4256 22.8427 78.6124 22.7422C78.824 22.6283 79.0393 22.5755 79.2583 22.5838C79.4787 22.5913 79.6842 22.6566 79.8748 22.7799C80.0661 22.9047 80.2254 23.0852 80.3526 23.3217C80.4798 23.5581 80.5423 23.786 80.54 24.0056C80.5377 24.2251 80.4839 24.4225 80.3787 24.5977C80.2735 24.7728 80.1297 24.9095 79.9472 25.0077C79.7356 25.1215 79.5177 25.1711 79.2933 25.1563C79.0704 25.1408 78.8408 25.0761 78.6046 24.9624L77.4537 24.413C77.2656 24.3223 77.0988 24.2747 76.9533 24.2701C76.8093 24.2648 76.6987 24.283 76.6213 24.3246C76.5031 24.3882 76.412 24.4758 76.3478 24.5875C76.2837 24.6992 76.2515 24.8247 76.2513 24.9641C76.2533 25.1042 76.2935 25.2472 76.372 25.3931C76.4584 25.5536 76.5794 25.6927 76.7349 25.8104C76.8919 25.9273 77.0721 26.0138 77.2754 26.07C77.4788 26.1262 77.6943 26.1419 77.9219 26.1173C78.151 26.0919 78.3801 26.0175 78.6092 25.8942L78.9756 26.575C78.6925 26.7274 78.429 26.8287 78.185 26.879C77.9426 26.9286 77.7224 26.9426 77.5246 26.9211C77.3281 26.8988 77.1571 26.8554 77.0113 26.7908C76.9676 26.7692 76.9247 26.7489 76.8827 26.7302C76.8406 26.7114 76.7977 26.6912 76.754 26.6695C76.5262 26.5889 76.3218 26.4608 76.1408 26.2854C75.9606 26.1113 75.8159 25.9229 75.7068 25.7201Z" fill="#9CA3AF"/>
<path d="M79.8976 38.1692L79.6661 36.4596L84.7109 35.7763L84.9471 37.5203C85.015 38.0211 84.9723 38.4651 84.819 38.8521C84.6676 39.2405 84.417 39.5571 84.0672 39.8018C83.7173 40.0465 83.2805 40.2044 82.7566 40.2753C82.2311 40.3465 81.7663 40.31 81.3621 40.1657C80.9582 40.0231 80.6304 39.7824 80.3788 39.4435C80.1274 39.1063 79.967 38.6815 79.8976 38.1692ZM80.5806 37.2664L80.6823 38.0177C80.7299 38.3691 80.8337 38.6536 80.9936 38.8711C81.1551 39.0883 81.372 39.2387 81.6442 39.3223C81.9181 39.4056 82.2479 39.4211 82.6339 39.3688C83.0198 39.3166 83.332 39.2141 83.5705 39.0613C83.8107 38.9084 83.9783 38.7076 84.0734 38.4589C84.1703 38.2116 84.1957 37.9172 84.1494 37.5757L84.044 36.7972L80.5806 37.2664Z" fill="#9CA3AF"/>
<path d="M80.3136 43.571L85.3994 43.7994L85.2509 47.1072L84.4786 47.0725L84.5857 44.686L83.205 44.624L83.1056 46.8391L82.3332 46.8045L82.4327 44.5894L81.0446 44.527L80.9365 46.9333L80.1642 46.8986L80.3136 43.571Z" fill="#9CA3AF"/>
<path d="M79.6674 50.414L84.6307 51.5469L84.4255 52.446L80.2159 51.4852L79.717 53.6712L78.9633 53.4991L79.6674 50.414Z" fill="#9CA3AF"/>
<path d="M81.6489 60.9374L76.9677 58.9366L77.3301 58.0886L82.0114 60.0894L81.6489 60.9374Z" fill="#9CA3AF"/>
<path d="M78.9113 66.0864L74.8372 64.9846L74.8084 65.0282L77.4241 68.3394L76.8654 69.1858L73.6054 64.8834L74.2326 63.9332L79.4687 65.242L78.9113 66.0864Z" fill="#9CA3AF"/>
<path d="M71.0026 68.2587L74.6823 71.7768L72.3941 74.17L71.8354 73.6358L73.4862 71.9091L72.4872 70.954L70.9549 72.5567L70.3961 72.0224L71.9285 70.4198L70.9241 69.4595L69.2595 71.2005L68.7007 70.6663L71.0026 68.2587Z" fill="#9CA3AF"/>
<path d="M66.0253 72.9784L69.0177 77.097L67.4732 78.2192C67.1568 78.4491 66.8514 78.587 66.557 78.6329C66.2613 78.6798 65.9864 78.6439 65.7323 78.5254C65.4778 78.4091 65.2551 78.2196 65.0642 77.9569C64.8723 77.6927 64.762 77.4226 64.7334 77.1464C64.7044 76.8724 64.76 76.6036 64.9003 76.3399C65.0415 76.0775 65.2703 75.8314 65.5867 75.6015L66.6868 74.8023L67.1368 75.4217L66.1373 76.1479C65.9523 76.2823 65.8193 76.4178 65.7383 76.5545C65.6583 76.6925 65.6262 76.8316 65.642 76.9717C65.6574 77.1141 65.7182 77.2584 65.8244 77.4046C65.9305 77.5507 66.0499 77.6544 66.1826 77.7158C66.3162 77.7785 66.4615 77.7938 66.6185 77.7617C66.7764 77.7309 66.9485 77.6479 67.1349 77.5125L67.8186 77.0157L65.2792 73.5205L66.0253 72.9784ZM65.2535 76.3905L62.878 75.2651L63.7106 74.6602L66.068 75.7988L65.2535 76.3905Z" fill="#9CA3AF"/>
<path d="M52.9948 80.5703C53.1881 80.5169 53.3776 80.5153 53.5634 80.5655C53.7496 80.6173 53.9126 80.7098 54.0526 80.8431C54.1909 80.9768 54.2867 81.1403 54.3401 81.3336C54.3939 81.5285 54.3955 81.718 54.3449 81.9022C54.2931 82.0884 54.2003 82.2507 54.0666 82.389C53.9333 82.529 53.77 82.6256 53.5767 82.6789C53.3818 82.7327 53.1921 82.7335 53.0075 82.6813C52.8217 82.6312 52.6597 82.5392 52.5213 82.4055C52.3818 82.2738 52.2852 82.1105 52.2314 81.9156C52.1781 81.7223 52.1773 81.5325 52.229 81.3463C52.2792 81.1606 52.3709 80.9977 52.5042 80.8578C52.6364 80.7199 52.7999 80.6241 52.9948 80.5703Z" fill="#9CA3AF"/>
</svg>
