<svg width="40" height="40" viewBox="0 0 40 40" fill="none" xmlns="http://www.w3.org/2000/svg">
<g clipPath="url(#clip0_28_11858)">
<path d="M40 20C40 31.0457 31.0457 40 20 40C8.9543 40 0 31.0457 0 20C0 8.9543 8.9543 0 20 0C31.0457 0 40 8.9543 40 20ZM4 20C4 28.8366 11.1634 36 20 36C28.8366 36 36 28.8366 36 20C36 11.1634 28.8366 4 20 4C11.1634 4 4 11.1634 4 20Z" fill="#D1D5DB"/>
<path d="M20 0C24.9785 5.93679e-08 29.778 1.85679 33.4603 5.20738C37.1425 8.55797 39.4427 13.1614 39.9112 18.1178C40.3798 23.0742 38.9829 28.0272 35.9937 32.0084C33.0045 35.9896 28.6379 38.7129 23.7476 39.6457C18.8573 40.5786 13.7949 39.6541 9.55002 37.0528C5.30516 34.4515 2.18308 30.3606 0.794124 25.5798C-0.594828 20.799 -0.150782 15.672 2.03945 11.2012C4.22969 6.73039 8.00864 3.23717 12.6375 1.40447L14.11 5.12357C10.4069 6.58973 7.38375 9.38431 5.63156 12.961C3.87937 16.5376 3.52414 20.6392 4.6353 24.4639C5.74646 28.2885 8.24413 31.5612 11.64 33.6422C15.0359 35.7232 19.0859 36.4629 22.9981 35.7166C26.9103 34.9703 30.4036 32.7917 32.795 29.6067C35.1863 26.4217 36.3038 22.4594 35.929 18.4943C35.5542 14.5292 33.714 10.8464 30.7682 8.1659C27.8224 5.48543 23.9828 4 20 4V0Z" fill="url(#paint0_angular_28_11858)"/>
<path d="M10.7812 23.7988H10.8926C11.3965 23.7988 11.8223 23.7344 12.1699 23.6055C12.5215 23.4766 12.8047 23.2949 13.0195 23.0605C13.2383 22.8223 13.3965 22.5391 13.4941 22.2109C13.5957 21.8789 13.6465 21.5117 13.6465 21.1094V19.5625C13.6465 19.2344 13.6133 18.9473 13.5469 18.7012C13.4805 18.4512 13.3867 18.2422 13.2656 18.0742C13.1484 17.9062 13.0098 17.7812 12.8496 17.6992C12.6895 17.6133 12.5176 17.5703 12.334 17.5703C12.1309 17.5703 11.9512 17.6172 11.7949 17.7109C11.6387 17.8047 11.5059 17.9336 11.3965 18.0977C11.291 18.2578 11.209 18.4434 11.1504 18.6543C11.0957 18.8652 11.0684 19.0879 11.0684 19.3223C11.0684 19.5488 11.0938 19.7656 11.1445 19.9727C11.1992 20.1797 11.2793 20.3633 11.3848 20.5234C11.4941 20.6836 11.6309 20.8105 11.7949 20.9043C11.959 20.9941 12.1504 21.0391 12.3691 21.0391C12.5762 21.0391 12.7637 21 12.9316 20.9219C13.1035 20.8398 13.252 20.7324 13.377 20.5996C13.502 20.4629 13.5977 20.3125 13.6641 20.1484C13.7344 19.9805 13.7734 19.8105 13.7812 19.6387L14.3262 19.873C14.3262 20.1582 14.2656 20.4395 14.1445 20.7168C14.0273 20.9941 13.8613 21.2461 13.6465 21.4727C13.4355 21.6953 13.1895 21.875 12.9082 22.0117C12.627 22.1445 12.3242 22.2109 12 22.2109C11.5977 22.2109 11.2422 22.1367 10.9336 21.9883C10.625 21.8398 10.3652 21.6348 10.1543 21.373C9.94727 21.1074 9.79102 20.8027 9.68555 20.459C9.58008 20.1113 9.52734 19.7402 9.52734 19.3457C9.52734 18.9355 9.5918 18.5508 9.7207 18.1914C9.84961 17.8281 10.0352 17.5098 10.2773 17.2363C10.5234 16.959 10.8203 16.7422 11.168 16.5859C11.5156 16.4258 11.9062 16.3457 12.3398 16.3457C12.7891 16.3457 13.1895 16.4336 13.541 16.6094C13.8926 16.7852 14.1914 17.0293 14.4375 17.3418C14.6836 17.6504 14.8711 18.0156 15 18.4375C15.1328 18.8594 15.1992 19.3203 15.1992 19.8203V20.3652C15.1992 20.8926 15.1465 21.3926 15.041 21.8652C14.9355 22.3379 14.7734 22.7695 14.5547 23.1602C14.3359 23.5508 14.0566 23.8887 13.7168 24.1738C13.3809 24.459 12.9785 24.6797 12.5098 24.8359C12.0449 24.9883 11.5137 25.0645 10.916 25.0645H10.7812V23.7988ZM22.5645 21.8887V23.1074H16.418L16.3536 22.1699L19.9688 16.4688H21.2052L19.8692 18.7363L17.9298 21.8887H22.5645ZM21.5509 16.4688V25H19.9981V16.4688H21.5509ZM23.6252 18.5605V18.1094C23.6252 17.7852 23.6955 17.4902 23.8361 17.2246C23.9767 16.959 24.1818 16.7461 24.4513 16.5859C24.7248 16.4258 25.0568 16.3457 25.4474 16.3457C25.8459 16.3457 26.1798 16.4258 26.4494 16.5859C26.7228 16.7461 26.9279 16.959 27.0646 17.2246C27.2052 17.4902 27.2755 17.7852 27.2755 18.1094V18.5605C27.2755 18.877 27.2052 19.168 27.0646 19.4336C26.9279 19.6992 26.7248 19.9121 26.4552 20.0723C26.1857 20.2324 25.8537 20.3125 25.4591 20.3125C25.0646 20.3125 24.7306 20.2324 24.4572 20.0723C24.1838 19.9121 23.9767 19.6992 23.8361 19.4336C23.6955 19.168 23.6252 18.877 23.6252 18.5605ZM24.674 18.1094V18.5605C24.674 18.709 24.7013 18.8496 24.756 18.9824C24.8146 19.1113 24.9025 19.2168 25.0197 19.2988C25.1369 19.3809 25.2834 19.4219 25.4591 19.4219C25.6349 19.4219 25.7775 19.3809 25.8869 19.2988C26.0002 19.2168 26.0841 19.1113 26.1388 18.9824C26.1974 18.8496 26.2267 18.709 26.2267 18.5605V18.1094C26.2267 17.957 26.1974 17.8145 26.1388 17.6816C26.0841 17.5488 25.9982 17.4414 25.881 17.3594C25.7677 17.2773 25.6232 17.2363 25.4474 17.2363C25.2755 17.2363 25.131 17.2773 25.0138 17.3594C24.9005 17.4414 24.8146 17.5488 24.756 17.6816C24.7013 17.8145 24.674 17.957 24.674 18.1094ZM27.7209 23.3594V22.9082C27.7209 22.5879 27.7912 22.2949 27.9318 22.0293C28.0763 21.7637 28.2853 21.5508 28.5588 21.3906C28.8322 21.2305 29.1623 21.1504 29.549 21.1504C29.9513 21.1504 30.2873 21.2305 30.5568 21.3906C30.8263 21.5508 31.0295 21.7637 31.1662 22.0293C31.3068 22.2949 31.3771 22.5879 31.3771 22.9082V23.3594C31.3771 23.6797 31.3068 23.9727 31.1662 24.2383C31.0295 24.5039 30.8263 24.7168 30.5568 24.877C30.2912 25.0371 29.9611 25.1172 29.5666 25.1172C29.172 25.1172 28.8361 25.0371 28.5588 24.877C28.2853 24.7168 28.0763 24.5039 27.9318 24.2383C27.7912 23.9727 27.7209 23.6797 27.7209 23.3594ZM28.7755 22.9082V23.3594C28.7755 23.5117 28.8068 23.6543 28.8693 23.7871C28.9318 23.916 29.0216 24.0215 29.1388 24.1035C29.2599 24.1855 29.4005 24.2266 29.5607 24.2266C29.756 24.2266 29.9103 24.1855 30.0236 24.1035C30.1369 24.0215 30.217 23.916 30.2638 23.7871C30.3107 23.6543 30.3341 23.5117 30.3341 23.3594V22.9082C30.3341 22.7559 30.3048 22.6152 30.2463 22.4863C30.1877 22.3535 30.0998 22.2461 29.9826 22.1641C29.8693 22.082 29.7248 22.041 29.549 22.041C29.3771 22.041 29.2326 22.082 29.1154 22.1641C29.0021 22.2461 28.9162 22.3535 28.8576 22.4863C28.8029 22.6152 28.7755 22.7559 28.7755 22.9082ZM29.9357 17.6875L25.7697 24.3555L25.0021 23.9277L29.1681 17.2598L29.9357 17.6875Z" fill="#6B7280"/>
</g>
<defs>
<radialGradient id="paint0_angular_28_11858" cx="0" cy="0" r="1" gradientUnits="userSpaceOnUse" gradientTransform="translate(20 20) rotate(-90) scale(20.6667)">
<stop stop-color="#EA580C"/>
<stop offset="1" stop-color="#E11D48"/>
</radialGradient>
<clipPath id="clip0_28_11858">
<rect width="40" height="40" fill="white"/>
</clipPath>
</defs>
</svg>
