<svg width="20" height="22" viewBox="0 0 20 22" fill="none" xmlns="http://www.w3.org/2000/svg">
<path d="M16.49 18.4894C14.8825 20.0969 12.7022 21 10.4288 21C8.15538 21 5.9751 20.0969 4.36757 18.4894C2.76004 16.8818 1.85693 14.7016 1.85693 12.4282C1.85693 10.1548 2.76004 7.97448 4.36757 6.36695C4.36757 9.57112 4.7147 12.4282 9.00026 13.8567C9.00026 10.9996 10.4288 2.42852 12.5716 1C14.0001 3.85704 14.8158 4.69415 16.4886 6.36695C17.2859 7.16194 17.9182 8.1067 18.3492 9.14689C18.7802 10.1871 19.0013 11.3022 18.9999 12.4282C19.0014 13.554 18.7805 14.669 18.3498 15.7092C17.919 16.7494 17.287 17.6942 16.49 18.4894Z" fill="#E11D48" stroke="#E11D48" strokeWidth="2" strokeLinecap="round" strokeLinejoin="round"/>
</svg>
