<svg width="143" height="17" viewBox="0 0 143 17" fill="none" xmlns="http://www.w3.org/2000/svg">
<path d="M0 14.9362V2.30864C0 0.717078 0.430161 0.262346 2.4555 0.262346H17.8875C18.712 0.262346 18.8554 0.61214 18.8554 1.38169C18.8554 2.27366 18.712 2.53601 17.8875 2.53601H6.29111C5.53833 2.53601 5.25155 2.86831 5.25155 3.51543V6.83848C5.25155 7.4856 5.5204 7.8179 6.29111 7.8179H14.4283C15.2528 7.8179 15.3962 8.1677 15.3962 8.91975C15.3962 9.84671 15.2528 10.1091 14.4283 10.1091H6.29111C5.53833 10.1091 5.25155 10.4414 5.25155 11.0885V14.9362C5.25155 16.4403 4.89309 16.7202 2.93944 16.7202H2.38381C0.304698 16.7027 0 16.4403 0 14.9362ZM22.0278 10.966V2.06379C22.0278 0.559671 22.3684 0.262346 24.4296 0.262346H24.9852C26.9209 0.262346 27.2973 0.559671 27.2973 2.06379V9.96914C27.2973 13.0473 28.086 14.8837 34.2158 14.8837C39.3239 14.8837 40.955 13.7294 40.955 10.3714V1.20679C40.955 0.402263 41.5106 0.262346 42.5322 0.262346C43.6614 0.262346 44.0736 0.402263 44.0736 1.20679V10.5638C44.0736 13.8868 42.7114 17 33.3196 17C24.8597 17 22.0278 14.7613 22.0278 10.966ZM49.6119 16.7027C47.5687 16.7027 47.1564 16.2829 47.1564 14.6914V2.06379C47.1564 0.559671 47.4611 0.262346 49.5582 0.262346H50.1138C52.0495 0.262346 52.4259 0.559671 52.4259 2.06379V13.4671C52.4259 14.0967 52.6948 14.4465 53.4655 14.4465H63.9686C64.7931 14.4465 64.9364 14.7963 64.9364 15.5484C64.9364 16.4753 64.7931 16.7027 63.9686 16.7027H49.6119ZM67.9297 8.5C67.9297 2.99074 70.5644 0 79.8308 0C84.2399 0 87.4303 0.524691 88.2189 0.682099C89.0972 0.856996 89.2585 0.979424 89.2585 1.88889C89.2585 2.86831 88.9896 3.09568 88.2189 2.95576C86.8568 2.78086 84.2758 2.30864 80.96 2.32613C74.8302 2.36111 73.468 4.31996 73.468 8.5C73.468 12.68 74.8302 14.6389 80.9779 14.6564C84.2937 14.6914 86.8747 14.2366 88.2369 14.0267C88.9896 13.8868 89.2764 14.1142 89.2764 15.0586C89.2764 16.0031 89.133 16.1255 88.2369 16.3004C87.4482 16.4403 84.2579 16.9825 79.8487 16.9825C70.5823 17 67.9297 14.0093 67.9297 8.5ZM92.2696 14.9362V2.30864C92.2696 0.717078 92.6998 0.262346 94.7251 0.262346H105.82C110.623 0.262346 113.473 1.15432 113.473 4.35494C113.473 6.92593 111.95 7.59053 109.279 8.18519C108.831 8.27263 108.544 8.36008 108.544 8.81482C108.544 9.26955 108.795 9.32202 109.297 9.40946C111.34 9.74177 113.616 10.0041 113.724 12.5751L113.849 14.9537C113.885 15.216 113.885 15.4609 113.885 15.6708C113.885 16.6502 113.491 16.7377 111.448 16.7377C108.598 16.7377 108.472 16.4054 108.419 14.7438C108.419 10.7212 107.361 10.179 103.561 10.1265L98.5249 10.0391C97.7721 10.0391 97.5212 10.214 97.5212 10.8961V14.9537C97.5212 16.4578 97.1627 16.7377 95.2091 16.7377H94.6534C92.5743 16.7027 92.2696 16.4403 92.2696 14.9362ZM103.812 8.02778C106.214 7.97531 107.845 7.76543 107.845 5.17695C107.845 2.58848 106.304 2.32613 103.651 2.32613H98.5607C97.808 2.32613 97.5212 2.58848 97.5212 3.18313V7.39815C97.5212 7.9928 97.7721 8.13272 98.5249 8.13272C100.299 8.11523 102.056 8.08025 103.812 8.02778ZM118.402 16.7027C117.129 16.7027 116.699 16.4054 117.129 15.6358L124.836 1.76646C125.535 0.524691 126.109 0.262346 127.686 0.262346H132.4C133.977 0.262346 134.551 0.559671 135.232 1.76646L142.652 14.9537C143.441 16.3529 142.921 16.7027 140.717 16.7027H118.402ZM135.465 14.534C136.074 14.534 136.218 14.1492 136.021 13.7294L130.267 2.95576C129.998 2.41358 129.694 2.32613 129.048 2.32613H128.744C128.098 2.32613 127.83 2.41358 127.525 2.95576L121.772 13.7294C121.556 14.1492 121.736 14.534 122.327 14.534H135.465Z" fill="url(#paint0_linear_28_11414)"/>
<defs>
<linearGradient id="paint0_linear_28_11414" x1="0" y1="0" x2="143" y2="17" gradientUnits="userSpaceOnUse">
<stop stop-color="#EA570D"/>
<stop offset="1" stop-color="#E11D48"/>
</linearGradient>
</defs>
</svg>
