<svg width="61" height="78" viewBox="0 0 61 78" fill="none" xmlns="http://www.w3.org/2000/svg">
<g clipPath="url(#clip0_28_11823)">
<path d="M18.49 39.49C18.49 38.39 19.39 37.49 20.49 37.49H40.49C41.59 37.49 42.49 38.39 42.49 39.49V74.22C42.49 75.92 40.51 76.84 39.21 75.76L31.77 69.56C31.03 68.94 29.95 68.94 29.21 69.56L21.77 75.76C20.47 76.85 18.49 75.92 18.49 74.22V39.49Z" fill="white"/>
<path d="M20.49 36.99C19.11 36.99 17.99 38.11 17.99 39.49V74.22C17.99 76.34 20.46 77.5 22.09 76.14L29.53 69.94C30.09 69.48 30.89 69.48 31.45 69.94L38.89 76.14C40.52 77.5 42.99 76.34 42.99 74.22V39.49C42.99 38.11 41.87 36.99 40.49 36.99H20.49Z" stroke="#121826" stroke-opacity="0.15"/>
<g opacity="0.2">
<path d="M25.3 5.91006C28.29 3.36006 32.6901 3.36006 35.68 5.91006L38.32 8.16006C39.6 9.25006 41.19 9.91006 42.87 10.0501L46.32 10.3301C50.2401 10.6401 53.35 13.7501 53.66 17.6701L53.94 21.1201C54.07 22.8001 54.7301 24.3901 55.8301 25.6701L58.0801 28.3101C60.6301 31.3001 60.6301 35.7001 58.0801 38.6901L55.8301 41.3301C54.7401 42.6101 54.08 44.2001 53.94 45.8801L53.66 49.3301C53.35 53.2501 50.2401 56.3601 46.32 56.6701L42.87 56.9501C41.19 57.0801 39.6 57.7401 38.32 58.8401L35.68 61.0901C32.6901 63.6401 28.29 63.6401 25.3 61.0901L22.66 58.8401C21.38 57.7501 19.7901 57.0901 18.1101 56.9501L14.66 56.6701C10.74 56.3601 7.63005 53.2501 7.32005 49.3301L7.04005 45.8801C6.91005 44.2001 6.25005 42.6101 5.15005 41.3301L2.90005 38.6901C0.350049 35.7001 0.350049 31.3001 2.90005 28.3101L5.15005 25.6701C6.24005 24.3901 6.90005 22.8001 7.04005 21.1201L7.32005 17.6701C7.63005 13.7501 10.74 10.6401 14.66 10.3301L18.1101 10.0501C19.7901 9.92006 21.38 9.26006 22.66 8.16006L25.3 5.91006Z" fill="#4F46E5"/>
</g>
<path d="M25.3 2.91006C28.29 0.360059 32.6901 0.360059 35.68 2.91006L38.32 5.16006C39.6 6.25006 41.19 6.91006 42.87 7.05006L46.32 7.33006C50.2401 7.64006 53.35 10.7501 53.66 14.6701L53.94 18.1201C54.07 19.8001 54.7301 21.3901 55.8301 22.6701L58.0801 25.3101C60.6301 28.3001 60.6301 32.7001 58.0801 35.6901L55.8301 38.3301C54.7401 39.6101 54.08 41.2001 53.94 42.8801L53.66 46.3301C53.35 50.2501 50.2401 53.3601 46.32 53.6701L42.87 53.9501C41.19 54.0801 39.6 54.7401 38.32 55.8401L35.68 58.0901C32.6901 60.6401 28.29 60.6401 25.3 58.0901L22.66 55.8401C21.38 54.7501 19.7901 54.0901 18.1101 53.9501L14.66 53.6701C10.74 53.3601 7.63005 50.2501 7.32005 46.3301L7.04005 42.8801C6.91005 41.2001 6.25005 39.6101 5.15005 38.3301L2.90005 35.6901C0.350049 32.7001 0.350049 28.3001 2.90005 25.3101L5.15005 22.6701C6.24005 21.3901 6.90005 19.8001 7.04005 18.1201L7.32005 14.6701C7.63005 10.7501 10.74 7.64006 14.66 7.33006L18.1101 7.05006C19.7901 6.92006 21.38 6.26006 22.66 5.16006L25.3 2.91006Z" fill="white"/>
<path d="M36 2.53006C32.82 -0.179941 28.15 -0.179941 24.97 2.53006L22.33 4.78006C21.13 5.80006 19.64 6.42006 18.06 6.55006L14.61 6.83006C10.45 7.16006 7.15004 10.4701 6.81004 14.6301L6.53004 18.0801C6.40004 19.6501 5.79004 21.1501 4.76004 22.3501L2.51004 24.9901C-0.199961 28.1701 -0.199961 32.8401 2.51004 36.0201L4.76004 38.6601C5.78004 39.8601 6.40004 41.3501 6.53004 42.9301L6.81004 46.3801C7.14004 50.5401 10.45 53.8401 14.61 54.1801L18.06 54.4601C19.63 54.5901 21.13 55.2001 22.33 56.2301L24.97 58.4801C28.15 61.1901 32.82 61.1901 36 58.4801L38.64 56.2301C39.84 55.2101 41.33 54.5901 42.91 54.4601L46.36 54.1801C50.52 53.8501 53.82 50.5401 54.16 46.3801L54.44 42.9301C54.57 41.3601 55.18 39.8601 56.21 38.6601L58.46 36.0201C61.17 32.8401 61.17 28.1701 58.46 24.9901L56.21 22.3501C55.19 21.1501 54.57 19.6601 54.44 18.0801L54.16 14.6301C53.83 10.4701 50.52 7.17006 46.36 6.83006L42.91 6.55006C41.34 6.42006 39.84 5.81006 38.64 4.78006L36 2.53006Z" stroke="#121826" stroke-opacity="0.15"/>
<path opacity="0.6" d="M30.49 50.49C41.5357 50.49 50.49 41.5357 50.49 30.49C50.49 19.4443 41.5357 10.49 30.49 10.49C19.4443 10.49 10.49 19.4443 10.49 30.49C10.49 41.5357 19.4443 50.49 30.49 50.49Z" stroke="#E5E7EB" strokeWidth="2"/>
<path d="M23.49 31.49L26.93 34.93C27.77 35.77 29.14 35.7 29.89 34.78L37.49 25.49" stroke="#E11D48" strokeWidth="2" strokeLinecap="round"/>
</g>
<defs>
<clipPath id="clip0_28_11823">
<rect width="60.98" height="77.22" fill="white"/>
</clipPath>
</defs>
</svg>
