<svg width="17" height="17" viewBox="0 0 17 17" fill="none" xmlns="http://www.w3.org/2000/svg">
<path d="M8.24312 1.375C4.44812 1.375 1.375 4.455 1.375 8.25C1.375 12.045 4.44812 15.125 8.24312 15.125C12.045 15.125 15.125 12.045 15.125 8.25C15.125 4.455 12.045 1.375 8.24312 1.375ZM8.25 13.75C5.21125 13.75 2.75 11.2887 2.75 8.25C2.75 5.21125 5.21125 2.75 8.25 2.75C11.2887 2.75 13.75 5.21125 13.75 8.25C13.75 11.2887 11.2887 13.75 8.25 13.75ZM8.09875 4.8125H8.0575C7.7825 4.8125 7.5625 5.0325 7.5625 5.3075V8.5525C7.5625 8.79312 7.68625 9.02 7.89937 9.14375L10.7525 10.8556C10.9862 10.9931 11.2887 10.9244 11.4262 10.6906C11.5706 10.4569 11.495 10.1475 11.2544 10.01L8.59375 8.42875V5.3075C8.59375 5.0325 8.37375 4.8125 8.09875 4.8125Z" fill="black" fill-opacity="0.54"/>
</svg>
