<svg width="56" height="56" viewBox="0 0 56 56" fill="none" xmlns="http://www.w3.org/2000/svg">
<rect width="56" height="56" rx="6" fill="#F1F5F9"/>
<g clipPath="url(#clip0_28_11804)">
<mask id="mask0_28_11804" style="mask-type:luminance" maskUnits="userSpaceOnUse" x="14" y="14" width="28" height="28">
<path d="M14 14.5H42V41.5H14V14.5Z" fill="white"/>
</mask>
<g mask="url(#mask0_28_11804)">
<path d="M33.9402 35.078C32.3647 36.5972 30.228 37.4507 28 37.4507C25.7719 37.4507 23.6352 36.5972 22.0598 35.078C20.4843 33.5589 19.5992 31.4984 19.5992 29.35C19.5992 27.2016 20.4843 25.1411 22.0598 23.6219C22.0598 26.65 22.4 29.35 26.6 30.7C26.6 28 28 19.9 30.1 18.55C31.5 21.25 32.2994 22.0411 33.9388 23.6219C34.7202 24.3732 35.3399 25.2661 35.7623 26.2491C36.1846 27.2321 36.4014 28.2859 36.4 29.35C36.4015 30.4139 36.1849 31.4677 35.7628 32.4507C35.3407 33.4337 34.7213 34.3266 33.9402 35.078Z" fill="#E11D48" stroke="#E11D48" strokeWidth="2" strokeLinecap="round" strokeLinejoin="round"/>
<path d="M25.0305 34.9133C25.418 35.3001 25.8814 35.6087 26.3938 35.8209C26.9062 36.0332 27.4574 36.1449 28.015 36.1496C28.5727 36.1542 29.1258 36.0518 29.6419 35.8481C30.1581 35.6445 30.627 35.3438 31.0214 34.9635C31.4157 34.5832 31.7276 34.1311 31.9388 33.6333C32.15 33.1356 32.2562 32.6023 32.2514 32.0645C32.2465 31.5268 32.1307 30.9953 31.9106 30.5012C31.6904 30.0071 31.3705 29.5602 30.9693 29.1866C30.1503 28.3955 29.7499 28 29.0499 26.65C27.9999 27.325 27.2999 31.375 27.2999 32.725C25.0305 32.725 23.7999 32.05 23.7999 32.05C23.7999 33.0868 24.2101 34.1236 25.0305 34.9133Z" fill="#E11D48"/>
</g>
</g>
<defs>
<clipPath id="clip0_28_11804">
<rect width="28" height="27" fill="white" transform="translate(14 14.5)"/>
</clipPath>
</defs>
</svg>
